# xmcd
#
# Track frame offsets:
#	150
#	14106
#	32164
#	47139
#	63893
#	88796
#	104084
#	125999
#
# Disc length: 2231 seconds
#
# Revision: 1
# Processed by: cddbd v1.5.2PL0 Copyright (c) Steve Scherf et al.
# Submitted via: audiograbber 1.83.01
#
DISCID=7608b508
DTITLE=Nazareth - Loud and Proud! - The Box Set [CD 04) - Loud 'n' Proud [remaste
DTITLE=red 2018]
DYEAR=1973
DGENRE=Hard Rock
TTITLE0=Go Down Fighting
TTITLE1=Not Faking It
TTITLE2=Turn On Your Receiver
TTITLE3=Teenage Nervous Breakdown
TTITLE4=Free Wheeler
TTITLE5=This Flight Tonight
TTITLE6=Child In The Sun
TTITLE7=The Ballad Of Hollis Brown
EXTD=
EXTT0=
EXTT1=
EXTT2=
EXTT3=
EXTT4=
EXTT5=
EXTT6=
EXTT7=
PLAYORDER=
